<svg xmlns="http://www.w3.org/2000/svg" viewBox="0 0 128 128" fill="#FF007A">
  <path d="M103.77,77.53c-6.95,0-12.89-4.27-15.36-10.36l-0.1-0.25l-0.09-0.25c-1.76-5.13-1.76-10.72,0-15.85l0.09-0.25 l0.1-0.25c2.47-6.09,8.41-10.36,15.36-10.36c9.12,0,16.53,7.41,16.53,16.53S112.89,77.53,103.77,77.53z M24.23,77.53 c-9.12,0-16.53-7.41-16.53-16.53s7.41-16.53,16.53-16.53c6.95,0,12.89,4.27,15.36,10.36l0.1,0.25l0.09,0.25 c1.76,5.13,1.76,10.72,0,15.85l-0.09,0.25l-0.1,0.25C37.12,73.26,31.18,77.53,24.23,77.53z M64,128c-9.12,0-16.53-7.41-16.53-16.53 c0-6.95,4.27-12.89,10.36-15.36l0.25-0.1l0.25-0.09c5.13-1.76,10.72-1.76,15.85,0l0.25,0.09l0.25,0.1 c6.09,2.47,10.36,8.41,10.36,15.36C80.53,120.59,73.12,128,64,128z M64,32.53c-9.12,0-16.53-7.41-16.53-16.53S54.88,0,64,0 s16.53,7.41,16.53,16.53S73.12,32.53,64,32.53z"/>
</svg> 