<?xml version="1.0" encoding="UTF-8"?>
<svg width="512" height="512" viewBox="0 0 24 24" xmlns="http://www.w3.org/2000/svg">
    <path fill="#0066FF" d="M13.13 22.19l-1.63-3.83c1.57-.58 3.04-1.36 4.4-2.27l-2.77 6.1M2 22l3.41-7.54c1.46.82 3.04 1.51 4.7 2.03L8 22h-6m10.25-15.3c-1.51 3.69-4.88 6.47-8.87 7.33L2 9.12c1.21-.94 2.29-2.06 3.21-3.3c3.57-4.82 9.14-7.29 14.79-7.29V4l2-1.17v4.17h-4.12c-1.54 0-3.06.3-4.48.89l-1.15.43v3.57l.89-.34c1.03-.38 2.11-.58 3.22-.58h1.68c.41 0 .82.04 1.21.12l1.12.25v4.34l-.86-.19c-.28-.06-.56-.09-.85-.09h-1.31c-1.31 0-2.61.23-3.84.68L12 17.53V7.3l.25-.09z"/>
</svg> 